<svg width="310" height="94" viewBox="0 0 310 94" fill="none" xmlns="http://www.w3.org/2000/svg">
<g clip-path="url(#clip0_501_2)">
<path d="M0 1.4996C2.58378 0.993681 5.05915 0.740723 7.38998 0.740723C9.90148 0.740723 12.4853 0.993681 15.1594 1.4996L49.9953 58.903V1.4996C53.0127 0.993681 55.8856 0.740723 58.65 0.740723C61.2338 0.740723 63.7453 0.993681 66.1665 1.4996V91.6068C63.4923 92.1128 61.0712 92.3657 58.903 92.3657C56.5722 92.3657 54.0245 92.1128 51.26 91.6068L16.1712 34.348V91.6249C13.4971 92.1308 10.7868 92.3838 8.02237 92.3838C5.2579 92.3838 2.58378 92.1308 0 91.6249V1.4996" fill="#D91C5C"/>
<path d="M95.058 49.869C92.2212 48.7849 89.6736 47.5924 87.415 46.2915C85.1565 44.9905 83.2412 43.4547 81.6512 41.6659C80.0612 39.8591 78.8325 37.7089 77.9472 35.2155C77.0618 32.704 76.6282 29.7046 76.6282 26.1993C76.6282 21.9351 77.3509 18.1769 78.8145 14.9246C80.278 11.6722 82.3378 8.92583 85.0119 6.72148C87.6861 4.51712 90.9022 2.83675 94.6605 1.69844C98.4187 0.578192 102.629 0 107.308 0C111.573 0 115.566 0.379438 119.27 1.12025C122.992 1.87912 126.895 2.96323 130.996 4.37257C130.49 9.21493 129.153 13.985 126.985 18.6647C125.738 18.1588 124.455 17.6529 123.172 17.147C121.871 16.6411 120.498 16.2255 119.035 15.9003C117.571 15.575 115.927 15.304 114.084 15.0872C112.241 14.8884 110.145 14.762 107.814 14.762C106.387 14.762 104.941 14.8884 103.478 15.1414C102.014 15.3944 100.695 15.8461 99.5389 16.5146C98.3645 17.1831 97.4069 18.1769 96.648 19.4598C95.8891 20.7607 95.5278 22.4411 95.5278 24.537C95.5278 26.2174 95.8168 27.6087 96.395 28.7289C96.9732 29.8491 97.7682 30.8248 98.7801 31.6018C99.7738 32.3968 100.912 33.0653 102.159 33.6074C103.406 34.1494 104.67 34.6734 105.917 35.1793L113.434 38.0522C116.614 39.317 119.486 40.5999 122.088 41.937C124.672 43.274 126.876 44.9363 128.665 46.8877C130.454 48.8572 131.863 51.2422 132.857 54.0248C133.869 56.8254 134.357 60.2765 134.357 64.36C134.357 68.6241 133.58 72.5088 132.044 76.0141C130.49 79.5375 128.268 82.5369 125.341 85.0484C122.414 87.5599 118.8 89.5113 114.5 90.9387C110.199 92.3481 105.249 93.0708 99.6474 93.0708C96.901 93.0708 94.4256 92.9804 92.2574 92.8178C90.0892 92.6371 88.0113 92.3842 86.0599 92.0047C84.0905 91.6253 82.1571 91.1555 80.2238 90.5593C78.2905 89.9811 76.303 89.2583 74.207 88.4272C74.46 86.006 74.9117 83.4764 75.5802 80.8384C76.2488 78.2004 77.0438 75.5624 77.9653 72.8702C81.4705 74.2976 84.7771 75.3637 87.8668 76.0683C90.9565 76.7911 94.263 77.1344 97.7682 77.1344C103.026 77.1344 107.164 76.1587 110.181 74.1892C113.181 72.2197 114.698 69.2384 114.698 65.2272C114.698 63.2216 114.337 61.5593 113.632 60.2042C112.928 58.8671 112.006 57.7469 110.868 56.8254C109.748 55.9039 108.465 55.127 107.037 54.5126C105.61 53.8802 104.146 53.284 102.647 52.6877L95.058 49.869Z" fill="#D91C5C"/>
<path d="M144.205 1.4996C147.547 0.993682 150.763 0.740723 153.853 0.740723C157.105 0.740723 160.322 0.993682 163.502 1.4996L184.172 53.1214L205.475 1.4996C208.077 0.993682 210.95 0.740723 214.13 0.740723C217.292 0.740723 220.345 0.993682 223.272 1.4996L227.536 91.6073C224.356 92.1132 221.357 92.3662 218.52 92.3662C215.684 92.3662 212.883 92.1132 210.136 91.6073L207.878 30.4454L189.575 72.8161C188.4 72.9787 187.189 73.1232 185.943 73.2497C184.696 73.3762 183.431 73.4304 182.185 73.4304C181.1 73.4304 180.016 73.3942 178.932 73.3039C177.848 73.2316 176.71 73.0509 175.553 72.798L158.515 29.56L156.744 91.6073C154.07 92.1132 151.486 92.3662 148.975 92.3662C146.3 92.3662 143.536 92.1132 140.699 91.6073L144.205 1.4996Z" fill="#D91C5C"/>
<path d="M261.378 1.4996C263.13 1.24664 264.793 1.06596 266.383 0.939476C267.973 0.812997 269.725 0.740723 271.64 0.740723C273.321 0.740723 274.947 0.794928 276.537 0.939476C278.127 1.06596 279.88 1.24664 281.795 1.4996L309.982 91.6073C306.549 92.1132 303.206 92.3662 299.954 92.3662C296.774 92.3662 293.684 92.1132 290.685 91.6073L285.68 73.5569H255.849L250.717 91.6073C247.7 92.1132 244.827 92.3662 242.063 92.3662C238.973 92.3662 235.919 92.1132 232.92 91.6073L261.378 1.4996ZM281.434 58.3974L271.026 20.5619L260.131 58.3974H281.434Z" fill="#D91C5C"/>
</g>
<defs>
<clipPath id="clip0_501_2">
<rect width="310" height="93.1068" fill="white"/>
</clipPath>
</defs>
</svg>
